<svg width="15" height="15" viewBox="0 0 15 15" fill="none" xmlns="http://www.w3.org/2000/svg">
<path d="M12.5 0C13.163 0 13.7989 0.263392 14.2678 0.732233C14.7366 1.20107 15 1.83696 15 2.5V12.5C15 13.163 14.7366 13.7989 14.2678 14.2678C13.7989 14.7366 13.163 15 12.5 15H2.5C1.83696 15 1.20107 14.7366 0.732233 14.2678C0.263392 13.7989 0 13.163 0 12.5V2.5C0 1.83696 0.263392 1.20107 0.732233 0.732233C1.20107 0.263392 1.83696 0 2.5 0H12.5ZM11.225 4.14167L5.83333 9.53333L3.775 7.475C3.65652 7.3646 3.49982 7.3045 3.3379 7.30735C3.17598 7.31021 3.02149 7.3758 2.90698 7.49032C2.79247 7.60483 2.72688 7.75931 2.72402 7.92123C2.72116 8.08315 2.78127 8.23985 2.89167 8.35833L5.39167 10.8583C5.50885 10.9754 5.66771 11.0411 5.83333 11.0411C5.99896 11.0411 6.15781 10.9754 6.275 10.8583L12.1083 5.025C12.2187 4.90652 12.2788 4.74982 12.276 4.5879C12.2731 4.42598 12.2075 4.27149 12.093 4.15698C11.9785 4.04247 11.824 3.97688 11.6621 3.97402C11.5002 3.97116 11.3435 4.03127 11.225 4.14167Z" fill="#00A2A1"/>
</svg>
