<svg width="17" height="17" viewBox="0 0 17 17" fill="none" xmlns="http://www.w3.org/2000/svg">
<path d="M8.33334 0C6.68516 0 5.07399 0.488742 3.70358 1.40442C2.33318 2.3201 1.26507 3.62159 0.634341 5.1443C0.0036107 6.66702 -0.161417 8.34258 0.160126 9.95909C0.48167 11.5756 1.27534 13.0605 2.44078 14.2259C3.60622 15.3913 5.09108 16.185 6.70758 16.5065C8.32409 16.8281 9.99965 16.6631 11.5224 16.0323C13.0451 15.4016 14.3466 14.3335 15.2622 12.9631C16.1779 11.5927 16.6667 9.98151 16.6667 8.33333C16.6667 7.23898 16.4511 6.15535 16.0323 5.1443C15.6135 4.13326 14.9997 3.2146 14.2259 2.44078C13.4521 1.66696 12.5334 1.05313 11.5224 0.634337C10.5113 0.215548 9.42769 0 8.33334 0ZM8.33334 15C7.0148 15 5.72586 14.609 4.62954 13.8765C3.53321 13.1439 2.67872 12.1027 2.17414 10.8846C1.66956 9.66638 1.53753 8.32594 1.79477 7.03273C2.052 5.73952 2.68694 4.55164 3.61929 3.61929C4.55164 2.68694 5.73953 2.052 7.03274 1.79477C8.32594 1.53753 9.66639 1.66955 10.8846 2.17414C12.1027 2.67872 13.1439 3.5332 13.8765 4.62953C14.609 5.72586 15 7.01479 15 8.33333C15 10.1014 14.2976 11.7971 13.0474 13.0474C11.7971 14.2976 10.1014 15 8.33334 15Z" fill="#7BE6E6"/>
<path d="M8.33366 4.16663C7.50957 4.16663 6.70399 4.411 6.01878 4.86884C5.33358 5.32668 4.79953 5.97742 4.48416 6.73878C4.1688 7.50014 4.08628 8.33791 4.24706 9.14617C4.40783 9.95442 4.80466 10.6969 5.38738 11.2796C5.9701 11.8623 6.71253 12.2591 7.52078 12.4199C8.32904 12.5807 9.16682 12.4982 9.92817 12.1828C10.6895 11.8674 11.3403 11.3334 11.7981 10.6482C12.256 9.96296 12.5003 9.15738 12.5003 8.33329C12.5003 7.22822 12.0613 6.16842 11.2799 5.38701C10.4985 4.60561 9.43873 4.16663 8.33366 4.16663Z" fill="#7BE6E6"/>
</svg>
