<svg width="181" height="35" viewBox="0 0 181 35" fill="none" xmlns="http://www.w3.org/2000/svg">
<path d="M53.5277 6.99644C55.8946 6.99644 57.861 7.61266 59.4268 8.84508C60.9926 10.0775 62.0485 11.7487 62.5948 13.8587H59.2903C58.8351 12.6637 58.1068 11.7207 57.1054 11.0298C56.1222 10.3202 54.9114 9.96546 53.4731 9.96546C52.3261 9.96546 51.2975 10.2549 50.3871 10.8337C49.4949 11.4126 48.7849 12.2436 48.2569 13.3266C47.747 14.3909 47.4921 15.642 47.4921 17.0799C47.4921 18.4989 47.747 19.7501 48.2569 20.8331C48.7849 21.8974 49.4949 22.7191 50.3871 23.2979C51.2975 23.8768 52.3261 24.1662 53.4731 24.1662C54.9114 24.1662 56.1222 23.8208 57.1054 23.1299C58.1068 22.4202 58.8351 21.4773 59.2903 20.3009H62.5948C62.0485 22.411 60.9926 24.0822 59.4268 25.3146C57.861 26.5283 55.8946 27.1352 53.5277 27.1352C51.7071 27.1352 50.0958 26.7151 48.6938 25.8748C47.2919 25.0158 46.2086 23.8301 45.4439 22.3176C44.6792 20.7864 44.2969 19.0405 44.2969 17.0799C44.2969 15.1192 44.6792 13.3826 45.4439 11.8701C46.2086 10.3389 47.2919 9.1438 48.6938 8.28486C50.0958 7.42591 51.7071 6.99644 53.5277 6.99644ZM72.583 11.3379C74.0399 11.3379 75.3509 11.6554 76.5161 12.2902C77.6812 12.9251 78.5915 13.8401 79.247 15.0352C79.9025 16.2302 80.2303 17.6307 80.2303 19.2365C80.2303 20.8611 79.9025 22.2709 79.247 23.466C78.5915 24.661 77.6812 25.5761 76.5161 26.2109C75.3509 26.8458 74.0399 27.1632 72.583 27.1632C71.127 27.1632 69.8161 26.8458 68.6504 26.2109C67.5033 25.5761 66.5933 24.661 65.9196 23.466C65.2641 22.2522 64.9364 20.8424 64.9364 19.2365C64.9364 17.6307 65.2641 16.2302 65.9196 15.0352C66.5933 13.8401 67.5033 12.9251 68.6504 12.2902C69.8161 11.6554 71.127 11.3379 72.583 11.3379ZM72.583 14.1108C71.7824 14.1108 71.045 14.2975 70.3709 14.671C69.6975 15.0445 69.1513 15.6233 68.7323 16.4076C68.332 17.1732 68.1314 18.1161 68.1314 19.2365C68.1314 20.3756 68.332 21.3279 68.7323 22.0935C69.1513 22.8591 69.6975 23.4286 70.3709 23.8021C71.045 24.1755 71.7824 24.3623 72.583 24.3623C73.3844 24.3623 74.1217 24.1755 74.7948 23.8021C75.4695 23.4286 76.0064 22.8591 76.4063 22.0935C76.8254 21.3279 77.0346 20.3756 77.0346 19.2365C77.0346 18.1161 76.8254 17.1732 76.4063 16.4076C76.0064 15.6233 75.4695 15.0445 74.7948 14.671C74.1217 14.2975 73.3844 14.1108 72.583 14.1108ZM102.04 11.2819C103.825 11.2819 105.245 11.8607 106.3 13.0185C107.375 14.1762 107.912 15.8288 107.912 17.9761V26.9671H104.799V18.3123C104.799 16.9678 104.471 15.9314 103.815 15.2032C103.16 14.4563 102.258 14.0828 101.112 14.0828C99.8921 14.0828 98.9177 14.4843 98.1893 15.2872C97.4793 16.0715 97.1243 17.2292 97.1243 18.7604V26.9671H94.0111V18.3123C94.0111 16.9678 93.6833 15.9314 93.0278 15.2032C92.3723 14.4563 91.4709 14.0828 90.3241 14.0828C89.1045 14.0828 88.1301 14.4843 87.4016 15.2872C86.6917 16.0715 86.3367 17.2292 86.3367 18.7604V26.9671H83.2234V11.5339H86.3367V14.7551C86.7189 13.6347 87.3567 12.7758 88.2486 12.1782C89.1405 11.5806 90.1879 11.2819 91.3891 11.2819C92.6456 11.2819 93.7282 11.5993 94.6393 12.2342C95.568 12.8691 96.2412 13.7841 96.6603 14.9791C97.097 13.8214 97.7982 12.9158 98.763 12.2622C99.7286 11.6086 100.821 11.2819 102.04 11.2819ZM120.178 11.3379C121.489 11.3379 122.654 11.6554 123.673 12.2902C124.711 12.9251 125.521 13.8401 126.104 15.0352C126.686 16.2302 126.978 17.6307 126.978 19.2365C126.978 20.8611 126.686 22.2709 126.104 23.466C125.521 24.661 124.711 25.5761 123.673 26.2109C122.654 26.8458 121.489 27.1632 120.178 27.1632C118.812 27.1632 117.646 26.8177 116.682 26.1269C115.717 25.436 115.044 24.521 114.661 23.382V34.3056H111.547V11.5339H114.661V15.1192C115.044 13.9802 115.717 13.0652 116.682 12.3742C117.646 11.6833 118.812 11.3379 120.178 11.3379ZM119.222 14.1389C118.348 14.1389 117.565 14.3536 116.873 14.783C116.181 15.1939 115.635 15.7914 115.234 16.5757C114.834 17.3413 114.634 18.2282 114.634 19.2365C114.634 20.2636 114.834 21.1599 115.234 21.9255C115.635 22.6911 116.181 23.2886 116.873 23.718C117.565 24.1289 118.348 24.3343 119.222 24.3343C120.606 24.3343 121.716 23.8861 122.554 22.9899C123.391 22.0749 123.81 20.8237 123.81 19.2365C123.81 17.668 123.391 16.4263 122.554 15.5113C121.716 14.5964 120.606 14.1389 119.222 14.1389ZM136.013 11.3379C137.378 11.3379 138.543 11.6833 139.508 12.3742C140.473 13.0652 141.156 13.9802 141.556 15.1192V11.5339H144.67V26.9671H141.556V23.382C141.156 24.521 140.473 25.436 139.508 26.1269C138.543 26.8177 137.378 27.1632 136.013 27.1632C134.702 27.1632 133.527 26.8458 132.489 26.2109C131.47 25.5761 130.669 24.661 130.086 23.466C129.503 22.2709 129.212 20.8611 129.212 19.2365C129.212 17.6307 129.503 16.2302 130.086 15.0352C130.669 13.8401 131.47 12.9251 132.489 12.2902C133.527 11.6554 134.702 11.3379 136.013 11.3379ZM136.968 14.1389C135.584 14.1389 134.473 14.5964 133.637 15.5113C132.817 16.4076 132.407 17.6494 132.407 19.2365C132.407 20.8237 132.817 22.0749 133.637 22.9899C134.473 23.8861 135.584 24.3343 136.968 24.3343C137.842 24.3343 138.625 24.1289 139.317 23.718C140.008 23.2886 140.555 22.6911 140.955 21.9255C141.356 21.1599 141.556 20.2636 141.556 19.2365C141.556 18.2282 141.356 17.3413 140.955 16.5757C140.555 15.7914 140.008 15.1939 139.317 14.783C138.625 14.3536 137.842 14.1389 136.968 14.1389ZM156.817 11.2819C158.565 11.2819 159.967 11.8607 161.023 13.0185C162.079 14.1762 162.607 15.8288 162.607 17.9761V26.9671H159.494V18.3123C159.494 16.9305 159.148 15.8661 158.456 15.1192C157.764 14.3536 156.817 13.9708 155.616 13.9708C154.377 13.9708 153.385 14.3816 152.639 15.2032C151.892 16.0061 151.519 17.1919 151.519 18.7604V26.9671H148.406V11.5339H151.519V14.9231C151.92 13.7654 152.593 12.8691 153.54 12.2342C154.487 11.5993 155.579 11.2819 156.817 11.2819ZM168.023 11.5339L172.529 22.8778L176.708 11.5339H180.177L171.082 34.3056H167.614L170.863 26.603L164.528 11.5339H168.023Z" fill="white"/>
<path d="M17.6537 3L3 17.6537L17.6537 32.3074L32.3073 17.6537L17.6537 3Z" stroke="#7BE6E6" stroke-width="3"/>
<path d="M17.6539 10.9929L10.9932 17.6537L17.6539 24.3145L24.3147 17.6537L17.6539 10.9929Z" fill="white"/>
</svg>
