<svg width="271" height="54" viewBox="0 0 271 54" fill="none" xmlns="http://www.w3.org/2000/svg">
<path d="M80.8586 11C84.412 11 87.3642 11.9251 89.715 13.7754C92.0658 15.6256 93.6511 18.1347 94.4712 21.3025H89.51C88.8266 19.5084 87.7332 18.0926 86.2298 17.0553C84.7538 15.9901 82.9359 15.4574 80.7765 15.4574C79.0544 15.4574 77.5102 15.892 76.1434 16.761C74.804 17.63 73.7379 18.8776 72.9452 20.5036C72.1798 22.1015 71.7971 23.9797 71.7971 26.1385C71.7971 28.269 72.1798 30.1474 72.9452 31.7733C73.7379 33.3712 74.804 34.6048 76.1434 35.4738C77.5102 36.3428 79.0544 36.7774 80.7765 36.7774C82.9359 36.7774 84.7538 36.2588 86.2298 35.2215C87.7332 34.1561 88.8266 32.7404 89.51 30.9743H94.4712C93.6511 34.1422 92.0658 36.6513 89.715 38.5016C87.3642 40.3237 84.412 41.2349 80.8586 41.2349C78.1252 41.2349 75.706 40.6041 73.6013 39.3425C71.4965 38.053 69.8701 36.2728 68.7221 34.002C67.574 31.7033 67 29.082 67 26.1385C67 23.1948 67.574 20.5877 68.7221 18.3169C69.8701 16.0182 71.4965 14.2238 73.6013 12.9343C75.706 11.6447 78.1252 11 80.8586 11ZM109.467 17.5179C111.654 17.5179 113.622 17.9946 115.372 18.9477C117.121 19.9008 118.488 21.2745 119.472 23.0687C120.456 24.8628 120.948 26.9654 120.948 29.3763C120.948 31.8153 120.456 33.9319 119.472 35.7261C118.488 37.5202 117.121 38.8941 115.372 39.8472C113.622 40.8003 111.654 41.2769 109.467 41.2769C107.281 41.2769 105.313 40.8003 103.563 39.8472C101.841 38.8941 100.474 37.5202 99.4627 35.7261C98.4788 33.9039 97.9867 31.7873 97.9867 29.3763C97.9867 26.9654 98.4788 24.8628 99.4627 23.0687C100.474 21.2745 101.841 19.9008 103.563 18.9477C105.313 17.9946 107.281 17.5179 109.467 17.5179ZM109.467 21.681C108.265 21.681 107.158 21.9613 106.146 22.522C105.135 23.0827 104.315 23.9518 103.686 25.1292C103.085 26.2786 102.784 27.6943 102.784 29.3763C102.784 31.0865 103.085 32.5162 103.686 33.6656C104.315 34.815 105.135 35.6701 106.146 36.2308C107.158 36.7914 108.265 37.0718 109.467 37.0718C110.67 37.0718 111.777 36.7914 112.787 36.2308C113.8 35.6701 114.606 34.815 115.207 33.6656C115.836 32.5162 116.15 31.0865 116.15 29.3763C116.15 27.6943 115.836 26.2786 115.207 25.1292C114.606 23.9518 113.8 23.0827 112.787 22.522C111.777 21.9613 110.67 21.681 109.467 21.681ZM153.692 17.4338C156.371 17.4338 158.503 18.3028 160.088 20.041C161.701 21.7792 162.507 24.2602 162.507 27.4841V40.9825H157.833V27.9887C157.833 25.9702 157.341 24.4143 156.357 23.321C155.373 22.1996 154.019 21.6389 152.298 21.6389C150.467 21.6389 149.004 22.2417 147.91 23.4471C146.844 24.6246 146.311 26.3628 146.311 28.6615V40.9825H141.637V27.9887C141.637 25.9702 141.145 24.4143 140.161 23.321C139.177 22.1996 137.824 21.6389 136.102 21.6389C134.271 21.6389 132.808 22.2417 131.714 23.4471C130.648 24.6246 130.116 26.3628 130.116 28.6615V40.9825H125.442V17.8122H130.116V22.6482C130.689 20.9662 131.647 19.6766 132.986 18.7795C134.325 17.8823 135.897 17.4338 137.701 17.4338C139.587 17.4338 141.213 17.9104 142.58 18.8635C143.975 19.8167 144.985 21.1905 145.615 22.9845C146.27 21.2464 147.323 19.8868 148.772 18.9056C150.221 17.9244 151.861 17.4338 153.692 17.4338ZM180.922 17.5179C182.89 17.5179 184.64 17.9946 186.17 18.9477C187.728 19.9008 188.944 21.2745 189.819 23.0687C190.693 24.8628 191.131 26.9654 191.131 29.3763C191.131 31.8153 190.693 33.9319 189.819 35.7261C188.944 37.5202 187.728 38.8941 186.17 39.8472C184.64 40.8003 182.89 41.2769 180.922 41.2769C178.872 41.2769 177.122 40.7582 175.674 39.721C174.225 38.6838 173.214 37.31 172.64 35.6V52H167.965V17.8122H172.64V23.1948C173.214 21.4848 174.225 20.1111 175.674 19.0738C177.122 18.0365 178.872 17.5179 180.922 17.5179ZM179.487 21.7231C178.175 21.7231 176.999 22.0454 175.961 22.6902C174.921 23.307 174.102 24.204 173.5 25.3815C172.899 26.531 172.599 27.8625 172.599 29.3763C172.599 30.9183 172.899 32.2639 173.5 33.4133C174.102 34.5627 174.921 35.4598 175.961 36.1045C176.999 36.7213 178.175 37.0297 179.487 37.0297C181.564 37.0297 183.231 36.3569 184.489 35.0113C185.746 33.6376 186.376 31.7592 186.376 29.3763C186.376 27.0215 185.746 25.1573 184.489 23.7835C183.231 22.4099 181.564 21.7231 179.487 21.7231ZM204.695 17.5179C206.745 17.5179 208.494 18.0365 209.943 19.0738C211.392 20.1111 212.417 21.4848 213.018 23.1948V17.8122H217.692V40.9825H213.018V35.6C212.417 37.31 211.392 38.6838 209.943 39.721C208.494 40.7582 206.745 41.2769 204.695 41.2769C202.727 41.2769 200.964 40.8003 199.406 39.8472C197.875 38.8941 196.672 37.5202 195.798 35.7261C194.923 33.9319 194.485 31.8153 194.485 29.3763C194.485 26.9654 194.923 24.8628 195.798 23.0687C196.672 21.2745 197.875 19.9008 199.406 18.9477C200.964 17.9946 202.727 17.5179 204.695 17.5179ZM206.13 21.7231C204.052 21.7231 202.384 22.4099 201.128 23.7835C199.898 25.1292 199.283 26.9935 199.283 29.3763C199.283 31.7592 199.898 33.6376 201.128 35.0113C202.384 36.3569 204.052 37.0297 206.13 37.0297C207.442 37.0297 208.617 36.7213 209.656 36.1045C210.694 35.4598 211.515 34.5627 212.116 33.4133C212.718 32.2639 213.018 30.9183 213.018 29.3763C213.018 27.8625 212.718 26.531 212.116 25.3815C211.515 24.204 210.694 23.307 209.656 22.6902C208.617 22.0454 207.442 21.7231 206.13 21.7231ZM235.93 17.4338C238.554 17.4338 240.659 18.3028 242.244 20.041C243.83 21.7792 244.623 24.2602 244.623 27.4841V40.9825H239.949V27.9887C239.949 25.9142 239.429 24.3162 238.391 23.1948C237.351 22.0454 235.93 21.4707 234.126 21.4707C232.267 21.4707 230.778 22.0875 229.657 23.321C228.536 24.5265 227.976 26.3067 227.976 28.6615V40.9825H223.302V17.8122H227.976V22.9005C228.577 21.1624 229.588 19.8167 231.01 18.8635C232.432 17.9104 234.072 17.4338 235.93 17.4338ZM252.754 17.8122L259.519 34.8431L265.793 17.8122H271L257.346 52H252.139L257.018 40.4359L247.506 17.8122H252.754Z" fill="black"/>
<path d="M27 5L5 27L27 48.9999L48.9999 27L27 5Z" stroke="#00A2A1" stroke-width="6"/>
<path d="M27 17L17 27L27 37L37 27L27 17Z" fill="black"/>
</svg>
