<svg width="76" height="76" viewBox="0 0 76 76" fill="none" xmlns="http://www.w3.org/2000/svg">
<circle cx="38" cy="38" r="38" fill="#7BE6E6"/>
<circle cx="38" cy="38" r="37.5" stroke="#00A2A1" stroke-opacity="0.2"/>
<g clip-path="url(#clip0_596_2648)">
<path d="M38.3119 36.5625C40.228 37.0208 41.7484 37.6875 42.8731 38.5625C43.9978 39.4375 44.5601 40.7083 44.5601 42.375C44.5601 43.7083 44.1331 44.7708 43.2792 45.5625C42.4253 46.3542 41.311 46.875 39.9364 47.125V50H35.9376V47.125C34.5213 46.8333 33.3654 46.25 32.4698 45.375C31.5742 44.5 31.0848 43.375 31.0015 42H33.9381C34.1047 43.875 35.4377 44.8125 37.937 44.8125C39.2283 44.8125 40.1447 44.5625 40.6862 44.0625C41.2277 43.5625 41.4985 43.0208 41.4985 42.4375C41.4985 41.7292 41.2173 41.1042 40.655 40.5625C40.0926 40.0208 39.0408 39.5625 37.4996 39.1875C33.3341 38.1875 31.2514 36.3542 31.2514 33.6875C31.2514 32.4792 31.6888 31.4479 32.5635 30.5938C33.4383 29.7396 34.5629 29.1667 35.9376 28.875V26H39.9364V28.9375C41.2694 29.2708 42.3003 29.8958 43.0293 30.8125C43.7582 31.7292 44.1435 32.7917 44.1852 34H41.2485C41.1652 32.125 40.0614 31.1875 37.937 31.1875C36.8123 31.1875 35.9271 31.4167 35.2815 31.875C34.6358 32.3333 34.313 32.9375 34.313 33.6875C34.313 34.3125 34.6046 34.8438 35.1878 35.2812C35.7709 35.7188 36.8123 36.1458 38.3119 36.5625Z" fill="#0E0E0E"/>
</g>
<defs>
<clipPath id="clip0_596_2648">
<rect width="14" height="24" fill="white" transform="translate(31 26)"/>
</clipPath>
</defs>
</svg>
