<svg width="84" height="84" viewBox="0 0 84 84" fill="none" xmlns="http://www.w3.org/2000/svg">
<g filter="url(#filter0_d_596_2648)">
<circle cx="42" cy="42" r="37" fill="#7BE6E6" stroke="#7BE6E6" stroke-width="2"/>
<g clip-path="url(#clip0_596_2648)">
<path d="M42.3119 40.5625C44.228 41.0208 45.7484 41.6875 46.8731 42.5625C47.9978 43.4375 48.5601 44.7083 48.5601 46.375C48.5601 47.7083 48.1331 48.7708 47.2792 49.5625C46.4253 50.3542 45.311 50.875 43.9364 51.125V54H39.9376V51.125C38.5213 50.8333 37.3654 50.25 36.4698 49.375C35.5742 48.5 35.0848 47.375 35.0015 46H37.9381C38.1047 47.875 39.4377 48.8125 41.937 48.8125C43.2283 48.8125 44.1447 48.5625 44.6862 48.0625C45.2277 47.5625 45.4985 47.0208 45.4985 46.4375C45.4985 45.7292 45.2173 45.1042 44.655 44.5625C44.0926 44.0208 43.0408 43.5625 41.4996 43.1875C37.3341 42.1875 35.2514 40.3542 35.2514 37.6875C35.2514 36.4792 35.6888 35.4479 36.5635 34.5938C37.4383 33.7396 38.5629 33.1667 39.9376 32.875V30H43.9364V32.9375C45.2694 33.2708 46.3003 33.8958 47.0293 34.8125C47.7582 35.7292 48.1435 36.7917 48.1852 38H45.2485C45.1652 36.125 44.0614 35.1875 41.937 35.1875C40.8123 35.1875 39.9271 35.4167 39.2815 35.875C38.6358 36.3333 38.313 36.9375 38.313 37.6875C38.313 38.3125 38.6046 38.8438 39.1878 39.2812C39.7709 39.7188 40.8123 40.1458 42.3119 40.5625Z" fill="#0E0E0E"/>
</g>
</g>
<defs>
<filter id="filter0_d_596_2648" x="0" y="0" width="84" height="84" filterUnits="userSpaceOnUse" color-interpolation-filters="sRGB">
<feFlood flood-opacity="0" result="BackgroundImageFix"/>
<feColorMatrix in="SourceAlpha" type="matrix" values="0 0 0 0 0 0 0 0 0 0 0 0 0 0 0 0 0 0 127 0" result="hardAlpha"/>
<feOffset/>
<feGaussianBlur stdDeviation="2"/>
<feComposite in2="hardAlpha" operator="out"/>
<feColorMatrix type="matrix" values="0 0 0 0 0 0 0 0 0 0 0 0 0 0 0 0 0 0 0.25 0"/>
<feBlend mode="normal" in2="BackgroundImageFix" result="effect1_dropShadow_596_2648"/>
<feBlend mode="normal" in="SourceGraphic" in2="effect1_dropShadow_596_2648" result="shape"/>
</filter>
<clipPath id="clip0_596_2648">
<rect width="14" height="24" fill="white" transform="translate(35 30)"/>
</clipPath>
</defs>
</svg>
