<svg width="20" height="20" viewBox="0 0 20 20" fill="none" xmlns="http://www.w3.org/2000/svg">
<path d="M9.96116 1.66663C5.38783 1.66663 1.66699 5.40496 1.66699 9.99996C1.66699 14.595 5.40533 18.3333 10.0003 18.3333C14.5953 18.3333 18.3337 14.595 18.3337 9.99996C18.3337 5.40496 14.5778 1.66663 9.96116 1.66663ZM10.0003 16.6666C6.32449 16.6666 3.33366 13.6758 3.33366 9.99996C3.33366 6.32413 6.30616 3.33329 9.96116 3.33329C13.6595 3.33329 16.667 6.32413 16.667 9.99996C16.667 13.6758 13.6762 16.6666 10.0003 16.6666Z" fill="#661515"/>
<path d="M9.16699 5.83337H10.8337V11.6667H9.16699V5.83337ZM9.16699 12.5H10.8337V14.1667H9.16699V12.5Z" fill="#661515"/>
</svg>
