<svg width="30" height="30" viewBox="0 0 30 30" fill="none" xmlns="http://www.w3.org/2000/svg">
<path d="M14.9999 28.5667C15.5249 28.5546 16.0286 28.3572 16.4221 28.0095C16.8156 27.6618 17.0734 27.1861 17.1499 26.6667H12.7666C12.8453 27.2003 13.1152 27.6871 13.526 28.0366C13.9368 28.3861 14.4606 28.5745 14.9999 28.5667V28.5667Z" fill="#0E0E0E"/>
<path d="M27.0915 23.1917C26.2879 22.4753 25.5844 21.654 24.9998 20.75C24.3617 19.5021 23.9792 18.1394 23.8748 16.7417V12.625C23.8715 12.125 23.8269 11.6261 23.7415 11.1333C23.0856 11.0022 22.4552 10.7658 21.8748 10.4333C22.0961 11.1457 22.2085 11.8874 22.2082 12.6333V16.75C22.3103 18.455 22.7793 20.1179 23.5832 21.625C24.1585 22.5367 24.8412 23.376 25.6165 24.125H4.27484C5.05018 23.376 5.73284 22.5367 6.30817 21.625C7.11201 20.1179 7.58103 18.455 7.68317 16.75V12.625C7.67878 11.6606 7.86468 10.7048 8.23021 9.81227C8.59573 8.91979 9.13372 8.10817 9.81335 7.42389C10.493 6.73961 11.3009 6.19611 12.1909 5.82452C13.0809 5.45292 14.0354 5.26052 14.9998 5.25834C16.4113 5.25947 17.7911 5.67688 18.9665 6.45834C18.8369 5.98249 18.7642 5.49297 18.7498 5.00001V4.47501C17.8797 4.04697 16.9449 3.76541 15.9832 3.64167V2.59167C15.9832 2.29662 15.866 2.01365 15.6573 1.80502C15.4487 1.59638 15.1657 1.47917 14.8707 1.47917C14.5756 1.47917 14.2926 1.59638 14.084 1.80502C13.8754 2.01365 13.7582 2.29662 13.7582 2.59167V3.68334C11.6046 3.98713 9.63365 5.05979 8.20919 6.70328C6.78473 8.34677 6.00294 10.4501 6.00817 12.625V16.7417C5.9038 18.1394 5.52132 19.5021 4.88317 20.75C4.30891 21.652 3.61667 22.4731 2.82484 23.1917C2.73595 23.2698 2.66471 23.3659 2.61585 23.4737C2.567 23.5814 2.54165 23.6984 2.5415 23.8167V24.95C2.5415 25.171 2.6293 25.383 2.78558 25.5393C2.94186 25.6955 3.15382 25.7833 3.37484 25.7833H26.5415C26.7625 25.7833 26.9745 25.6955 27.1308 25.5393C27.287 25.383 27.3748 25.171 27.3748 24.95V23.8167C27.3747 23.6984 27.3493 23.5814 27.3005 23.4737C27.2516 23.3659 27.1804 23.2698 27.0915 23.1917V23.1917Z" fill="#0E0E0E"/>
<path d="M25.0002 9.16667C27.3013 9.16667 29.1668 7.30119 29.1668 5C29.1668 2.69882 27.3013 0.833336 25.0002 0.833336C22.699 0.833336 20.8335 2.69882 20.8335 5C20.8335 7.30119 22.699 9.16667 25.0002 9.16667Z" fill="#FF5555"/>
</svg>
