<svg width="20" height="21" viewBox="0 0 20 21" fill="none" xmlns="http://www.w3.org/2000/svg">
<path d="M14.0632 6.125H2.81323C2.39897 6.12545 2.00181 6.29022 1.70888 6.58315C1.41595 6.87608 1.25119 7.27324 1.25073 7.6875V16.4375C1.25119 16.8518 1.41595 17.2489 1.70888 17.5419C2.00181 17.8348 2.39897 17.9995 2.81323 18H14.0632C14.4775 17.9995 14.8747 17.8348 15.1676 17.5419C15.4605 17.2489 15.6253 16.8518 15.6257 16.4375V7.6875C15.6253 7.27324 15.4605 6.87608 15.1676 6.58315C14.8747 6.29022 14.4775 6.12545 14.0632 6.125V6.125ZM13.7507 16.125H3.12573V8H13.7507V16.125ZM18.7507 4.5625V14.25C18.7507 14.4986 18.652 14.7371 18.4761 14.9129C18.3003 15.0887 18.0619 15.1875 17.8132 15.1875C17.5646 15.1875 17.3261 15.0887 17.1503 14.9129C16.9745 14.7371 16.8757 14.4986 16.8757 14.25V4.875H5.00073C4.75209 4.875 4.51364 4.77623 4.33782 4.60041C4.162 4.4246 4.06323 4.18614 4.06323 3.9375C4.06323 3.68886 4.162 3.4504 4.33782 3.27459C4.51364 3.09877 4.75209 3 5.00073 3H17.1882C17.6025 3.00045 17.9997 3.16522 18.2926 3.45815C18.5855 3.75108 18.7503 4.14824 18.7507 4.5625V4.5625Z" fill="white"/>
</svg>
