<svg width="20" height="20" viewBox="0 0 20 20" fill="none" xmlns="http://www.w3.org/2000/svg">
<path d="M1.875 11.75C2.91053 11.75 3.75 10.9105 3.75 9.875C3.75 8.83947 2.91053 8 1.875 8C0.839466 8 0 8.83947 0 9.875C0 10.9105 0.839466 11.75 1.875 11.75Z" fill="#AFAFAF"/>
<path d="M9.375 11.75C10.4105 11.75 11.25 10.9105 11.25 9.875C11.25 8.83947 10.4105 8 9.375 8C8.33947 8 7.5 8.83947 7.5 9.875C7.5 10.9105 8.33947 11.75 9.375 11.75Z" fill="#AFAFAF"/>
<path d="M16.875 11.75C17.9105 11.75 18.75 10.9105 18.75 9.875C18.75 8.83947 17.9105 8 16.875 8C15.8395 8 15 8.83947 15 9.875C15 10.9105 15.8395 11.75 16.875 11.75Z" fill="#AFAFAF"/>
</svg>
