<svg width="20" height="21" viewBox="0 0 20 21" fill="none" xmlns="http://www.w3.org/2000/svg">
<path d="M11.6667 3V6.33333C11.6667 6.55435 11.7545 6.76631 11.9108 6.92259C12.0671 7.07887 12.2791 7.16667 12.5001 7.16667H15.8334" stroke="#505050" stroke-width="1.66667" stroke-linecap="round" stroke-linejoin="round"/>
<path d="M14.1667 18H5.83341C5.39139 18 4.96746 17.8244 4.6549 17.5118C4.34234 17.1993 4.16675 16.7754 4.16675 16.3333V4.66667C4.16675 4.22464 4.34234 3.80072 4.6549 3.48816C4.96746 3.17559 5.39139 3 5.83341 3H11.6667L15.8334 7.16667V16.3333C15.8334 16.7754 15.6578 17.1993 15.3453 17.5118C15.0327 17.8244 14.6088 18 14.1667 18Z" stroke="#505050" stroke-width="1.66667" stroke-linecap="round" stroke-linejoin="round"/>
<path d="M7.5 6.33334H8.33333" stroke="#505050" stroke-width="1.66667" stroke-linecap="round" stroke-linejoin="round"/>
<path d="M7.5 11.3333H12.5" stroke="#505050" stroke-width="1.66667" stroke-linecap="round" stroke-linejoin="round"/>
<path d="M10.8335 14.6667H12.5002" stroke="#505050" stroke-width="1.66667" stroke-linecap="round" stroke-linejoin="round"/>
</svg>
