<svg width="20" height="21" viewBox="0 0 20 21" fill="none" xmlns="http://www.w3.org/2000/svg">
<path d="M17.5665 6.33333C17.4225 6.08385 17.2163 5.87594 16.968 5.72989C16.7198 5.58384 16.4379 5.50464 16.1498 5.5H5.48317L4.99984 3.61667C4.951 3.43487 4.84205 3.27495 4.69073 3.16298C4.53941 3.051 4.35464 2.99356 4.1665 3H2.49984C2.27882 3 2.06686 3.0878 1.91058 3.24408C1.7543 3.40036 1.6665 3.61232 1.6665 3.83333C1.6665 4.05435 1.7543 4.26631 1.91058 4.42259C2.06686 4.57887 2.27882 4.66667 2.49984 4.66667H3.53317L5.83317 13.2167C5.882 13.3985 5.99095 13.5584 6.14227 13.6704C6.29359 13.7823 6.47837 13.8398 6.6665 13.8333H14.1665C14.3204 13.8329 14.4711 13.7898 14.6021 13.7089C14.733 13.628 14.8389 13.5124 14.9082 13.375L17.6415 7.90833C17.76 7.66001 17.8151 7.38623 17.802 7.1114C17.789 6.83658 17.708 6.56927 17.5665 6.33333ZM13.6498 12.1667H7.29984L5.9415 7.16667H16.1498L13.6498 12.1667Z" fill="#0E0E0E"/>
<path d="M6.25 18C6.94036 18 7.5 17.4404 7.5 16.75C7.5 16.0596 6.94036 15.5 6.25 15.5C5.55964 15.5 5 16.0596 5 16.75C5 17.4404 5.55964 18 6.25 18Z" fill="#0E0E0E"/>
<path d="M14.583 18C15.2734 18 15.833 17.4404 15.833 16.75C15.833 16.0596 15.2734 15.5 14.583 15.5C13.8927 15.5 13.333 16.0596 13.333 16.75C13.333 17.4404 13.8927 18 14.583 18Z" fill="#0E0E0E"/>
</svg>
