<svg width="20" height="21" viewBox="0 0 20 21" fill="none" xmlns="http://www.w3.org/2000/svg">
<path d="M17.5667 6.33333C17.4228 6.08385 17.2166 5.87594 16.9683 5.72989C16.72 5.58384 16.4381 5.50464 16.1501 5.5H5.48341L5.00008 3.61667C4.95125 3.43487 4.8423 3.27495 4.69098 3.16298C4.53966 3.051 4.35488 2.99356 4.16675 3H2.50008C2.27907 3 2.06711 3.0878 1.91083 3.24408C1.75455 3.40036 1.66675 3.61232 1.66675 3.83333C1.66675 4.05435 1.75455 4.26631 1.91083 4.42259C2.06711 4.57887 2.27907 4.66667 2.50008 4.66667H3.53341L5.83341 13.2167C5.88225 13.3985 5.9912 13.5584 6.14252 13.6704C6.29384 13.7823 6.47861 13.8398 6.66675 13.8333H14.1667C14.3206 13.8329 14.4714 13.7898 14.6023 13.7089C14.7332 13.628 14.8392 13.5124 14.9084 13.375L17.6417 7.90833C17.7602 7.66001 17.8154 7.38623 17.8023 7.1114C17.7892 6.83658 17.7083 6.56927 17.5667 6.33333ZM13.6501 12.1667H7.30008L5.94175 7.16667H16.1501L13.6501 12.1667Z" fill="white"/>
<path d="M6.25 18C6.94036 18 7.5 17.4404 7.5 16.75C7.5 16.0596 6.94036 15.5 6.25 15.5C5.55964 15.5 5 16.0596 5 16.75C5 17.4404 5.55964 18 6.25 18Z" fill="white"/>
<path d="M14.5835 18C15.2739 18 15.8335 17.4404 15.8335 16.75C15.8335 16.0596 15.2739 15.5 14.5835 15.5C13.8931 15.5 13.3335 16.0596 13.3335 16.75C13.3335 17.4404 13.8931 18 14.5835 18Z" fill="white"/>
</svg>
