<svg width="12" height="6" viewBox="0 0 12 6" fill="none" xmlns="http://www.w3.org/2000/svg">
<path d="M6.14737 5.91619C5.95265 5.91657 5.76396 5.84876 5.61403 5.72453L0.614032 1.55786C0.443851 1.41641 0.336831 1.21315 0.316515 0.992798C0.296198 0.772442 0.36425 0.553041 0.505698 0.382861C0.647147 0.21268 0.850407 0.10566 1.07076 0.0853439C1.29112 0.0650275 1.51052 0.133079 1.6807 0.274527L6.14737 4.00786L10.614 0.407861C10.6993 0.33864 10.7974 0.286947 10.9026 0.255754C11.0079 0.22456 11.1183 0.214482 11.2275 0.226098C11.3367 0.237714 11.4425 0.270795 11.5389 0.32344C11.6353 0.376085 11.7203 0.447256 11.789 0.532861C11.8653 0.618546 11.9231 0.719068 11.9588 0.828129C11.9945 0.93719 12.0072 1.05244 11.9963 1.16666C11.9853 1.28088 11.9509 1.39161 11.8952 1.4919C11.8394 1.5922 11.7636 1.67991 11.6724 1.74953L6.67237 5.77453C6.51813 5.87912 6.33328 5.929 6.14737 5.91619Z" fill="#B0B0B0"/>
</svg>
