<svg width="20" height="20" viewBox="0 0 20 20" fill="none" xmlns="http://www.w3.org/2000/svg">
<path d="M8.4375 1.875C4.81313 1.875 1.875 4.81313 1.875 8.4375C1.875 12.0619 4.81313 15 8.4375 15C9.96875 15 11.3769 14.4756 12.4931 13.5975L16.7919 17.8963C16.8644 17.9688 16.9506 18.0264 17.0454 18.0656C17.1402 18.1049 17.2418 18.1251 17.3444 18.1251C17.447 18.1251 17.5486 18.1049 17.6434 18.0656C17.7382 18.0264 17.8243 17.9688 17.8969 17.8963C17.9694 17.8237 18.027 17.7376 18.0663 17.6428C18.1055 17.548 18.1257 17.4464 18.1257 17.3438C18.1257 17.2411 18.1055 17.1395 18.0663 17.0447C18.027 16.9499 17.9694 16.8638 17.8969 16.7912L13.5975 12.4925C14.5081 11.3372 15.0023 9.9085 15 8.4375C15 4.81313 12.0619 1.875 8.4375 1.875ZM3.4375 8.4375C3.4375 7.11142 3.96428 5.83965 4.90197 4.90197C5.83965 3.96428 7.11142 3.4375 8.4375 3.4375C9.76358 3.4375 11.0354 3.96428 11.973 4.90197C12.9107 5.83965 13.4375 7.11142 13.4375 8.4375C13.4375 9.76358 12.9107 11.0354 11.973 11.973C11.0354 12.9107 9.76358 13.4375 8.4375 13.4375C7.11142 13.4375 5.83965 12.9107 4.90197 11.973C3.96428 11.0354 3.4375 9.76358 3.4375 8.4375V8.4375Z" fill="#0E0E0E"/>
</svg>
