<svg width="20" height="21" viewBox="0 0 20 21" fill="none" xmlns="http://www.w3.org/2000/svg">
<path d="M7.61842 18.4879C6.24011 18.0764 4.99182 17.315 3.99508 16.2779C4.31578 15.8975 4.51569 15.4301 4.56924 14.9355C4.62279 14.4409 4.52754 13.9415 4.29568 13.5013C4.06382 13.0611 3.70589 12.7001 3.2677 12.4645C2.82951 12.2289 2.33098 12.1294 1.83592 12.1787C1.72313 11.6263 1.66645 11.0638 1.66675 10.5C1.66675 9.62915 1.80008 8.78915 2.04842 7.99998H2.08342C2.50831 8.00012 2.92624 7.89195 3.29772 7.68571C3.66921 7.47946 3.982 7.18194 4.20655 6.82122C4.43111 6.46051 4.56003 6.04852 4.58113 5.62415C4.60224 5.19977 4.51483 4.77702 4.32717 4.39581C5.30408 3.48616 6.48552 2.82491 7.77175 2.4679C7.98107 2.8789 8.30002 3.22398 8.69329 3.46496C9.08657 3.70594 9.53885 3.83343 10.0001 3.83331C10.4613 3.83343 10.9136 3.70594 11.3069 3.46496C11.7001 3.22398 12.0191 2.8789 12.2284 2.4679C13.5146 2.82491 14.6961 3.48616 15.673 4.39581C15.484 4.77969 15.3966 5.20567 15.4193 5.63296C15.4421 6.06025 15.5741 6.47457 15.8027 6.83624C16.0314 7.19791 16.3491 7.49484 16.7254 7.6986C17.1016 7.90236 17.5239 8.00613 17.9518 7.99998C18.2055 8.80903 18.3342 9.65208 18.3334 10.5C18.3334 11.075 18.2751 11.6366 18.1643 12.1787C17.6692 12.1294 17.1707 12.2289 16.7325 12.4645C16.2943 12.7001 15.9363 13.0611 15.7045 13.5013C15.4726 13.9415 15.3774 14.4409 15.4309 14.9355C15.4845 15.4301 15.6844 15.8975 16.0051 16.2779C15.0083 17.315 13.7601 18.0764 12.3817 18.4879C12.2199 17.9834 11.902 17.5434 11.474 17.2312C11.046 16.919 10.5299 16.7508 10.0001 16.7508C9.47029 16.7508 8.95419 16.919 8.52615 17.2312C8.09812 17.5434 7.78027 17.9834 7.61842 18.4879Z" stroke="#505050" stroke-width="1.66667" stroke-linejoin="round"/>
<path d="M10.0002 13.4166C10.3832 13.4166 10.7625 13.3412 11.1163 13.1946C11.4702 13.0481 11.7917 12.8332 12.0626 12.5624C12.3334 12.2915 12.5482 11.97 12.6948 11.6161C12.8414 11.2623 12.9168 10.883 12.9168 10.5C12.9168 10.117 12.8414 9.73769 12.6948 9.38382C12.5482 9.02995 12.3334 8.70842 12.0626 8.43759C11.7917 8.16675 11.4702 7.95191 11.1163 7.80533C10.7625 7.65875 10.3832 7.58331 10.0002 7.58331C9.22661 7.58331 8.48475 7.8906 7.93777 8.43759C7.39079 8.98457 7.0835 9.72643 7.0835 10.5C7.0835 11.2735 7.39079 12.0154 7.93777 12.5624C8.48475 13.1094 9.22661 13.4166 10.0002 13.4166V13.4166Z" stroke="#505050" stroke-width="1.66667" stroke-linejoin="round"/>
</svg>
