<svg width="25" height="25" viewBox="0 0 25 25" fill="none" xmlns="http://www.w3.org/2000/svg">
<path d="M3.125 5.46875C3.125 5.26155 3.20731 5.06284 3.35382 4.91632C3.50034 4.76981 3.69905 4.6875 3.90625 4.6875H21.0938C21.301 4.6875 21.4997 4.76981 21.6462 4.91632C21.7927 5.06284 21.875 5.26155 21.875 5.46875C21.875 5.67595 21.7927 5.87466 21.6462 6.02118C21.4997 6.16769 21.301 6.25 21.0938 6.25H3.90625C3.69905 6.25 3.50034 6.16769 3.35382 6.02118C3.20731 5.87466 3.125 5.67595 3.125 5.46875ZM19.7594 8.82187C19.9061 8.67518 20.105 8.59276 20.3125 8.59276C20.52 8.59276 20.7189 8.67518 20.8656 8.82187C21.0123 8.96857 21.0947 9.16754 21.0947 9.375C21.0947 9.58246 21.0123 9.78143 20.8656 9.92813L18.2922 12.5L20.8656 15.0719C21.0123 15.2186 21.0947 15.4175 21.0947 15.625C21.0947 15.8325 21.0123 16.0314 20.8656 16.1781C20.7189 16.3248 20.52 16.4072 20.3125 16.4072C20.105 16.4072 19.9061 16.3248 19.7594 16.1781L16.6344 13.0531C16.5616 12.9806 16.5039 12.8943 16.4645 12.7994C16.4251 12.7045 16.4049 12.6028 16.4049 12.5C16.4049 12.3972 16.4251 12.2955 16.4645 12.2006C16.5039 12.1057 16.5616 12.0194 16.6344 11.9469L19.7594 8.82187ZM3.125 10.1562C3.125 9.94905 3.20731 9.75034 3.35382 9.60382C3.50034 9.45731 3.69905 9.375 3.90625 9.375H13.2812C13.4885 9.375 13.6872 9.45731 13.8337 9.60382C13.9802 9.75034 14.0625 9.94905 14.0625 10.1562C14.0625 10.3635 13.9802 10.5622 13.8337 10.7087C13.6872 10.8552 13.4885 10.9375 13.2812 10.9375H3.90625C3.69905 10.9375 3.50034 10.8552 3.35382 10.7087C3.20731 10.5622 3.125 10.3635 3.125 10.1562ZM3.125 14.8438C3.125 14.6365 3.20731 14.4378 3.35382 14.2913C3.50034 14.1448 3.69905 14.0625 3.90625 14.0625H13.2812C13.4885 14.0625 13.6872 14.1448 13.8337 14.2913C13.9802 14.4378 14.0625 14.6365 14.0625 14.8438C14.0625 15.051 13.9802 15.2497 13.8337 15.3962C13.6872 15.5427 13.4885 15.625 13.2812 15.625H3.90625C3.69905 15.625 3.50034 15.5427 3.35382 15.3962C3.20731 15.2497 3.125 15.051 3.125 14.8438ZM3.125 19.5312C3.125 19.324 3.20731 19.1253 3.35382 18.9788C3.50034 18.8323 3.69905 18.75 3.90625 18.75H21.0938C21.301 18.75 21.4997 18.8323 21.6462 18.9788C21.7927 19.1253 21.875 19.324 21.875 19.5312C21.875 19.7385 21.7927 19.9372 21.6462 20.0837C21.4997 20.2302 21.301 20.3125 21.0938 20.3125H3.90625C3.69905 20.3125 3.50034 20.2302 3.35382 20.0837C3.20731 19.9372 3.125 19.7385 3.125 19.5312Z" fill="white"/>
</svg>
