<svg width="16" height="17" viewBox="0 0 16 17" fill="none" xmlns="http://www.w3.org/2000/svg">
<path d="M4.84462 6.15465C4.77499 6.085 4.71975 6.00231 4.68206 5.91131C4.64438 5.82031 4.62499 5.72278 4.625 5.62428C4.62502 5.52579 4.64443 5.42826 4.68213 5.33727C4.71984 5.24628 4.77509 5.1636 4.84475 5.09396L7.46975 2.46959C7.6104 2.32899 7.80113 2.25 8 2.25C8.19887 2.25 8.3896 2.32899 8.53025 2.46959L11.1552 5.09396C11.2953 5.23473 11.3738 5.42528 11.3736 5.62384C11.3733 5.8224 11.2943 6.01276 11.154 6.15318C11.0136 6.29361 10.8232 6.37263 10.6247 6.37293C10.4261 6.37323 10.2356 6.29478 10.0948 6.15478L8.75 4.8104V10C8.75 10.1989 8.67098 10.3897 8.53033 10.5304C8.38968 10.671 8.19891 10.75 8 10.75C7.80109 10.75 7.61032 10.671 7.46967 10.5304C7.32902 10.3897 7.25 10.1989 7.25 10V4.8104L5.90525 6.15478C5.76457 6.29537 5.57381 6.37434 5.37491 6.37432C5.17602 6.37429 4.98528 6.29528 4.84462 6.15465V6.15465ZM13.5 9.25003C13.3011 9.25003 13.1103 9.32905 12.9697 9.4697C12.829 9.61035 12.75 9.80111 12.75 10V13.25H3.25V10C3.25 9.80111 3.17098 9.61035 3.03033 9.4697C2.88968 9.32905 2.69891 9.25003 2.5 9.25003C2.30109 9.25003 2.11032 9.32905 1.96967 9.4697C1.82902 9.61035 1.75 9.80111 1.75 10V13.5C1.75036 13.8314 1.88218 14.1492 2.11652 14.3835C2.35086 14.6179 2.66859 14.7497 3 14.75H13C13.3314 14.7497 13.6491 14.6179 13.8835 14.3835C14.1178 14.1492 14.2496 13.8314 14.25 13.5V10C14.25 9.80111 14.171 9.61035 14.0303 9.4697C13.8897 9.32905 13.6989 9.25003 13.5 9.25003Z" fill="#505050"/>
</svg>
