<svg width="17" height="17" viewBox="0 0 17 17" fill="none" xmlns="http://www.w3.org/2000/svg">
<path d="M5.34462 6.15465C5.27499 6.085 5.21975 6.00231 5.18206 5.91131C5.14438 5.82031 5.12499 5.72278 5.125 5.62428C5.12502 5.52579 5.14443 5.42826 5.18213 5.33727C5.21984 5.24628 5.27509 5.1636 5.34475 5.09396L7.96975 2.46959C8.1104 2.32899 8.30113 2.25 8.5 2.25C8.69887 2.25 8.8896 2.32899 9.03025 2.46959L11.6552 5.09396C11.7953 5.23473 11.8738 5.42528 11.8736 5.62384C11.8733 5.8224 11.7943 6.01276 11.654 6.15318C11.5136 6.29361 11.3232 6.37263 11.1247 6.37293C10.9261 6.37323 10.7356 6.29478 10.5948 6.15478L9.25 4.8104V10C9.25 10.1989 9.17098 10.3897 9.03033 10.5304C8.88968 10.671 8.69891 10.75 8.5 10.75C8.30109 10.75 8.11032 10.671 7.96967 10.5304C7.82902 10.3897 7.75 10.1989 7.75 10V4.8104L6.40525 6.15478C6.26457 6.29537 6.07381 6.37434 5.87491 6.37432C5.67602 6.37429 5.48528 6.29528 5.34462 6.15465ZM14 9.25003C13.8011 9.25003 13.6103 9.32905 13.4697 9.4697C13.329 9.61035 13.25 9.80112 13.25 10V13.25H3.75V10C3.75 9.80112 3.67098 9.61035 3.53033 9.4697C3.38968 9.32905 3.19891 9.25003 3 9.25003C2.80109 9.25003 2.61032 9.32905 2.46967 9.4697C2.32902 9.61035 2.25 9.80112 2.25 10V13.5C2.25036 13.8314 2.38218 14.1492 2.61652 14.3835C2.85086 14.6179 3.16859 14.7497 3.5 14.75H13.5C13.8314 14.7497 14.1491 14.6179 14.3835 14.3835C14.6178 14.1492 14.7496 13.8314 14.75 13.5V10C14.75 9.80112 14.671 9.61035 14.5303 9.4697C14.3897 9.32905 14.1989 9.25003 14 9.25003Z" fill="#F0F0F0"/>
</svg>
