<svg width="20" height="21" viewBox="0 0 20 21" fill="none" xmlns="http://www.w3.org/2000/svg">
<path d="M16.6667 3H4.16675C2.78841 3 1.66675 4.12167 1.66675 5.5V15.5C1.66675 16.8783 2.78841 18 4.16675 18H16.6667C17.5859 18 18.3334 17.2525 18.3334 16.3333V4.66667C18.3334 3.7475 17.5859 3 16.6667 3ZM4.16675 16.3333C3.70675 16.3333 3.33341 15.9592 3.33341 15.5V5.5C3.33341 5.04083 3.70675 4.66667 4.16675 4.66667H16.6667V7.16667H11.6667C10.7476 7.16667 10.0001 7.91417 10.0001 8.83333V12.1667C10.0001 13.0858 10.7476 13.8333 11.6667 13.8333H16.6676V16.3333H4.16675ZM16.6667 8.83333V12.1667H11.6667V8.83333H16.6667Z" fill="white"/>
</svg>
