<svg width="20" height="20" viewBox="0 0 20 20" fill="none" xmlns="http://www.w3.org/2000/svg">
<path d="M9.9999 13.3333C9.80519 13.3337 9.6165 13.2659 9.46657 13.1417L4.46657 8.975C4.29639 8.83355 4.18937 8.63029 4.16905 8.40993C4.14874 8.18958 4.21679 7.97018 4.35824 7.8C4.49969 7.62982 4.70295 7.5228 4.9233 7.50248C5.14366 7.48216 5.36306 7.55022 5.53324 7.69166L9.9999 11.425L14.4666 7.825C14.5518 7.75578 14.6499 7.70408 14.7552 7.67289C14.8605 7.6417 14.9709 7.63162 15.0801 7.64324C15.1892 7.65485 15.2951 7.68793 15.3914 7.74058C15.4878 7.79322 15.5728 7.86439 15.6416 7.95C15.7179 8.03568 15.7757 8.1362 15.8113 8.24527C15.847 8.35433 15.8598 8.46958 15.8488 8.5838C15.8379 8.69802 15.8034 8.80874 15.7477 8.90904C15.692 9.00934 15.6161 9.09704 15.5249 9.16666L10.5249 13.1917C10.3707 13.2963 10.1858 13.3461 9.9999 13.3333V13.3333Z" fill="white"/>
</svg>
