<svg width="20" height="20" viewBox="0 0 20 20" fill="none" xmlns="http://www.w3.org/2000/svg">
<path d="M9.96067 18.3334C5.38734 18.3334 1.6665 14.595 1.6665 10C1.6665 5.40504 5.40484 1.66671 9.99984 1.66671C14.5948 1.66671 18.3332 5.40504 18.3332 10C18.3332 14.595 14.5773 18.3334 9.96067 18.3334ZM9.99984 3.33337C6.324 3.33337 3.33317 6.32421 3.33317 10C3.33317 13.6759 6.30567 16.6667 9.96067 16.6667C13.659 16.6667 16.6665 13.6759 16.6665 10C16.6665 6.32421 13.6757 3.33337 9.99984 3.33337Z" fill="#00B9E1"/>
<path d="M9.1665 14.1665H10.8332V8.33317H9.1665V14.1665ZM9.1665 7.49984H10.8332V5.83317H9.1665V7.49984Z" fill="#00B9E1"/>
</svg>
