<svg width="20" height="20" viewBox="0 0 20 20" fill="none" xmlns="http://www.w3.org/2000/svg">
<path d="M9.96116 18.3334C5.38783 18.3334 1.66699 14.595 1.66699 10C1.66699 5.40504 5.40533 1.66671 10.0003 1.66671C14.5953 1.66671 18.3337 5.40504 18.3337 10C18.3337 14.595 14.5778 18.3334 9.96116 18.3334ZM10.0003 3.33337C6.32449 3.33337 3.33366 6.32421 3.33366 10C3.33366 13.6759 6.30616 16.6667 9.96116 16.6667C13.6595 16.6667 16.667 13.6759 16.667 10C16.667 6.32421 13.6762 3.33337 10.0003 3.33337Z" fill="#004A5A"/>
<path d="M9.16699 14.1665H10.8337V8.33317H9.16699V14.1665ZM9.16699 7.49984H10.8337V5.83317H9.16699V7.49984Z" fill="#004A5A"/>
</svg>
