<svg width="20" height="20" viewBox="0 0 40 40" fill="none" xmlns="http://www.w3.org/2000/svg">
<path d="M16.0003 0.693334C16.2606 0.989877 16.4201 1.35279 16.4581 1.73518C16.4961 2.11758 16.411 2.50187 16.2136 2.83842C14.6719 5.49222 13.8667 8.46689 13.8722 11.4888C13.8722 21.5417 22.6137 29.682 33.3872 29.682C34.7926 29.682 36.1606 29.5445 37.4753 29.282C37.8783 29.2002 38.2981 29.2315 38.6823 29.372C39.0664 29.5125 39.3979 29.756 39.6353 30.0721C39.886 30.4007 40.0138 30.7978 39.9988 31.2015C39.9839 31.6053 39.827 31.9931 39.5527 32.3047C37.4611 34.7133 34.8226 36.6541 31.8294 37.9854C28.8363 39.3166 25.564 40.0049 22.251 40C9.9575 40 0 30.7146 0 19.2741C0 10.6638 5.63743 3.27844 13.6642 0.148311C14.0641 -0.0101159 14.508 -0.0426324 14.9292 0.0556463C15.3504 0.153925 15.7263 0.377692 16.0003 0.693334Z" fill="black"/>
</svg>
