<svg width="76" height="76" viewBox="0 0 76 76" fill="none" xmlns="http://www.w3.org/2000/svg">
<circle cx="38" cy="38" r="38" fill="#EBFFFF"/>
<circle cx="38" cy="38" r="37.5" stroke="#00A2A1" stroke-opacity="0.2"/>
<path d="M45.6665 41H48.4998V46.6667H45.6665V41Z" fill="#00A2A1"/>
<path d="M51.3335 33.9167V31.0833C51.3335 29.5207 50.0627 28.25 48.5002 28.25H30.0835C27.7403 28.25 25.8335 30.1568 25.8335 32.5V49.5C25.8335 52.6181 28.375 53.75 30.0835 53.75H51.3335C52.8961 53.75 54.1668 52.4792 54.1668 50.9167V36.75C54.1668 35.1874 52.8961 33.9167 51.3335 33.9167ZM30.0835 31.0833H48.5002V33.9167H30.0835C29.7187 33.9003 29.3743 33.744 29.122 33.4801C28.8696 33.2162 28.7288 32.8651 28.7288 32.5C28.7288 32.1349 28.8696 31.7838 29.122 31.5199C29.3743 31.256 29.7187 31.0997 30.0835 31.0833V31.0833ZM51.3335 50.9167H30.1005C29.446 50.8997 28.6668 50.6404 28.6668 49.5V36.4879C29.1117 36.648 29.5834 36.75 30.0835 36.75H51.3335V50.9167Z" fill="#00A2A1"/>
</svg>
