<svg width="84" height="84" viewBox="0 0 84 84" fill="none" xmlns="http://www.w3.org/2000/svg">
<g filter="url(#filter0_d_596_2645)">
<circle cx="42" cy="42" r="37" fill="#7BE6E6" stroke="#7BE6E6" stroke-width="2"/>
<path d="M45.9182 39.0817L42.9998 37.75L45.9182 36.4183L47.2498 33.5L48.5815 36.4183L51.4998 37.75L48.5815 39.0817L47.2498 42L45.9182 39.0817ZM31.6665 44.8333L32.9982 41.915L35.9165 40.5833L32.9982 39.2517L31.6665 36.3333L30.3348 39.2517L27.4165 40.5833L30.3348 41.915L31.6665 44.8333ZM38.0415 37.75L39.5857 34.3358L42.9998 32.7917L39.5857 31.2475L38.0415 27.8333L36.4973 31.2475L33.0832 32.7917L36.4973 34.3358L38.0415 37.75ZM32.3748 54.0417L40.8748 45.5275L46.5415 51.1942L58.5832 37.6508L56.5857 35.6533L46.5415 46.9442L40.8748 41.2775L30.2498 51.9167L32.3748 54.0417Z" fill="#0E0E0E"/>
</g>
<defs>
<filter id="filter0_d_596_2645" x="0" y="0" width="84" height="84" filterUnits="userSpaceOnUse" color-interpolation-filters="sRGB">
<feFlood flood-opacity="0" result="BackgroundImageFix"/>
<feColorMatrix in="SourceAlpha" type="matrix" values="0 0 0 0 0 0 0 0 0 0 0 0 0 0 0 0 0 0 127 0" result="hardAlpha"/>
<feOffset/>
<feGaussianBlur stdDeviation="2"/>
<feComposite in2="hardAlpha" operator="out"/>
<feColorMatrix type="matrix" values="0 0 0 0 0 0 0 0 0 0 0 0 0 0 0 0 0 0 0.25 0"/>
<feBlend mode="normal" in2="BackgroundImageFix" result="effect1_dropShadow_596_2645"/>
<feBlend mode="normal" in="SourceGraphic" in2="effect1_dropShadow_596_2645" result="shape"/>
</filter>
</defs>
</svg>
