<svg width="76" height="76" viewBox="0 0 76 76" fill="none" xmlns="http://www.w3.org/2000/svg">
<circle cx="38" cy="38" r="38" fill="#EBFFFF"/>
<circle cx="38" cy="38" r="37.5" stroke="#00A2A1" stroke-opacity="0.2"/>
<path d="M41.9184 35.0817L39.0001 33.75L41.9184 32.4183L43.2501 29.5L44.5817 32.4183L47.5001 33.75L44.5817 35.0817L43.2501 38L41.9184 35.0817ZM27.6667 40.8333L28.9984 37.915L31.9167 36.5833L28.9984 35.2517L27.6667 32.3333L26.3351 35.2517L23.4167 36.5833L26.3351 37.915L27.6667 40.8333ZM34.0417 33.75L35.5859 30.3358L39.0001 28.7917L35.5859 27.2475L34.0417 23.8333L32.4976 27.2475L29.0834 28.7917L32.4976 30.3358L34.0417 33.75ZM28.3751 50.0417L36.8751 41.5275L42.5417 47.1942L54.5834 33.6508L52.5859 31.6533L42.5417 42.9442L36.8751 37.2775L26.2501 47.9167L28.3751 50.0417Z" fill="#00A2A1"/>
</svg>
