<svg width="76" height="76" viewBox="0 0 76 76" fill="none" xmlns="http://www.w3.org/2000/svg">
<circle cx="38" cy="38" r="38" fill="#7BE6E6"/>
<circle cx="38" cy="38" r="37.5" stroke="#00A2A1" stroke-opacity="0.2"/>
<path d="M41.9182 35.0817L38.9998 33.75L41.9182 32.4183L43.2498 29.5L44.5815 32.4183L47.4998 33.75L44.5815 35.0817L43.2498 38L41.9182 35.0817ZM27.6665 40.8333L28.9982 37.915L31.9165 36.5833L28.9982 35.2517L27.6665 32.3333L26.3348 35.2517L23.4165 36.5833L26.3348 37.915L27.6665 40.8333ZM34.0415 33.75L35.5857 30.3358L38.9998 28.7917L35.5857 27.2475L34.0415 23.8333L32.4973 27.2475L29.0832 28.7917L32.4973 30.3358L34.0415 33.75ZM28.3748 50.0417L36.8748 41.5275L42.5415 47.1942L54.5832 33.6508L52.5857 31.6533L42.5415 42.9442L36.8748 37.2775L26.2498 47.9167L28.3748 50.0417Z" fill="#0E0E0E"/>
</svg>
