<svg width="40" height="40" viewBox="0 0 40 40" fill="none" xmlns="http://www.w3.org/2000/svg">
<path d="M19.9777 0.000174079C19.5997 0.00608304 19.2395 0.161727 18.9761 0.432947C18.7127 0.704167 18.5677 1.0688 18.5729 1.44683V5.72826C18.5702 5.91737 18.6051 6.10513 18.6757 6.28062C18.7462 6.45611 18.8509 6.61584 18.9837 6.75052C19.1164 6.8852 19.2747 6.99214 19.4492 7.06514C19.6236 7.13813 19.8109 7.17572 20 7.17572C20.1891 7.17572 20.3764 7.13813 20.5508 7.06514C20.7253 6.99214 20.8836 6.8852 21.0163 6.75052C21.1491 6.61584 21.2538 6.45611 21.3243 6.28062C21.3949 6.10513 21.4298 5.91737 21.4271 5.72826V1.44683C21.4297 1.25589 21.394 1.06637 21.3221 0.889491C21.2501 0.712611 21.1434 0.551966 21.0082 0.417071C20.8731 0.282176 20.7122 0.175773 20.5352 0.104163C20.3582 0.0325529 20.1686 -0.00280809 19.9777 0.000174079ZM6.86604 5.44115C6.58238 5.44178 6.30533 5.52692 6.07027 5.68571C5.83521 5.8445 5.6528 6.06973 5.54631 6.33265C5.43983 6.59558 5.41411 6.88427 5.47243 7.16188C5.53075 7.43949 5.67046 7.69342 5.87375 7.89127L8.9008 10.9184C9.0323 11.0553 9.18981 11.1647 9.3641 11.24C9.5384 11.3153 9.72597 11.3551 9.91583 11.3571C10.1057 11.359 10.294 11.323 10.4698 11.2513C10.6456 11.1795 10.8053 11.0734 10.9396 10.9391C11.0738 10.8048 11.1799 10.6451 11.2517 10.4693C11.3235 10.2936 11.3595 10.1052 11.3575 9.91535C11.3556 9.72548 11.3158 9.53791 11.2405 9.36361C11.1651 9.18932 11.0558 9.03181 10.9188 8.9003L7.89178 5.8732C7.75846 5.73615 7.59897 5.62729 7.42276 5.55307C7.24656 5.47885 7.05724 5.44079 6.86604 5.44115ZM33.0894 5.44115C32.7186 5.4522 32.3667 5.60716 32.1082 5.8732L29.0812 8.9003C28.9442 9.03181 28.8349 9.18932 28.7595 9.36361C28.6842 9.53791 28.6444 9.72548 28.6425 9.91535C28.6406 10.1052 28.6765 10.2936 28.7483 10.4693C28.8201 10.6451 28.9262 10.8048 29.0604 10.9391C29.1947 11.0734 29.3544 11.1795 29.5302 11.2512C29.706 11.323 29.8943 11.359 30.0842 11.3571C30.274 11.3551 30.4616 11.3153 30.6359 11.24C30.8102 11.1647 30.9677 11.0553 31.0992 10.9184L34.1263 7.89127C34.3325 7.69081 34.4733 7.43272 34.5304 7.15083C34.5874 6.86895 34.5579 6.5764 34.4458 6.31155C34.3337 6.04669 34.1443 5.82187 33.9022 5.66656C33.6602 5.51124 33.3768 5.43268 33.0894 5.44115ZM20 10.0097C17.3505 10.0097 14.8096 11.0622 12.9361 12.9357C11.0627 14.8092 10.0102 17.3502 10.0102 19.9997C10.0102 22.6492 11.0627 25.1902 12.9361 27.0637C14.8096 28.9372 17.3505 29.9897 20 29.9897C22.6495 29.9897 25.1904 28.9372 27.0639 27.0637C28.9373 25.1902 29.9898 22.6492 29.9898 19.9997C29.9898 17.3502 28.9373 14.8092 27.0639 12.9357C25.1904 11.0622 22.6495 10.0097 20 10.0097ZM1.44745 18.5725C1.25833 18.5699 1.07058 18.6048 0.895089 18.6753C0.719598 18.7458 0.559873 18.8505 0.425197 18.9833C0.29052 19.1161 0.183577 19.2743 0.110583 19.4488C0.0375892 19.6233 0 19.8105 0 19.9997C0 20.1888 0.0375892 20.3761 0.110583 20.5505C0.183577 20.725 0.29052 20.8832 0.425197 21.016C0.559873 21.1488 0.719598 21.2535 0.895089 21.324C1.07058 21.3946 1.25833 21.4295 1.44745 21.4268H5.7288C5.91791 21.4295 6.10567 21.3946 6.28116 21.324C6.45665 21.2535 6.61638 21.1488 6.75105 21.016C6.88573 20.8832 6.99267 20.725 7.06567 20.5505C7.13866 20.3761 7.17625 20.1888 7.17625 19.9997C7.17625 19.8105 7.13866 19.6233 7.06567 19.4488C6.99267 19.2743 6.88573 19.1161 6.75105 18.9833C6.61638 18.8505 6.45665 18.7458 6.28116 18.6753C6.10567 18.6048 5.91791 18.5699 5.7288 18.5725H1.44745ZM34.2712 18.5725C34.0821 18.5699 33.8943 18.6048 33.7188 18.6753C33.5433 18.7458 33.3836 18.8505 33.2489 18.9833C33.1143 19.1161 33.0073 19.2743 32.9343 19.4488C32.8613 19.6233 32.8238 19.8105 32.8238 19.9997C32.8238 20.1888 32.8613 20.3761 32.9343 20.5505C33.0073 20.725 33.1143 20.8832 33.2489 21.016C33.3836 21.1488 33.5433 21.2535 33.7188 21.324C33.8943 21.3946 34.0821 21.4295 34.2712 21.4268H38.5526C38.7417 21.4295 38.9294 21.3946 39.1049 21.324C39.2804 21.2535 39.4401 21.1488 39.5748 21.016C39.7095 20.8832 39.8164 20.725 39.8894 20.5505C39.9624 20.3761 40 20.1888 40 19.9997C40 19.8105 39.9624 19.6233 39.8894 19.4488C39.8164 19.2743 39.7095 19.1161 39.5748 18.9833C39.4401 18.8505 39.2804 18.7458 39.1049 18.6753C38.9294 18.6048 38.7417 18.5699 38.5526 18.5725H34.2712ZM9.88195 28.6489C9.51118 28.66 9.15928 28.815 8.9008 29.081L5.87375 32.1081C5.73678 32.2396 5.62744 32.3971 5.55211 32.5714C5.47678 32.7457 5.43699 32.9333 5.43506 33.1231C5.43313 33.313 5.4691 33.5013 5.54087 33.6771C5.61264 33.8529 5.71876 34.0126 5.85302 34.1469C5.98728 34.2811 6.14698 34.3873 6.32277 34.459C6.49855 34.5308 6.68689 34.5668 6.87676 34.5649C7.06662 34.5629 7.25419 34.5231 7.42848 34.4478C7.60277 34.3725 7.76028 34.2631 7.89178 34.1262L10.9188 31.0991C11.1251 30.8986 11.2659 30.6405 11.3229 30.3586C11.38 30.0767 11.3505 29.7842 11.2384 29.5193C11.1263 29.2545 10.9368 29.0297 10.6948 28.8743C10.4527 28.719 10.1694 28.6405 9.88195 28.6489ZM30.0762 28.6489C29.7923 28.649 29.5149 28.7338 29.2794 28.8923C29.0439 29.0509 28.8611 29.2761 28.7543 29.5392C28.6474 29.8022 28.6215 30.0911 28.6797 30.369C28.7379 30.6469 28.8777 30.901 29.0812 31.0991L32.1082 34.1262C32.2397 34.2631 32.3972 34.3725 32.5715 34.4478C32.7458 34.5231 32.9334 34.5629 33.1232 34.5648C33.3131 34.5668 33.5014 34.5308 33.6772 34.459C33.853 34.3873 34.0127 34.2811 34.147 34.1469C34.2812 34.0126 34.3873 33.8529 34.4591 33.6771C34.5309 33.5013 34.5669 33.313 34.5649 33.1231C34.563 32.9333 34.5232 32.7457 34.4479 32.5714C34.3726 32.3971 34.2632 32.2396 34.1263 32.1081L31.0992 29.081C30.9662 28.9443 30.8072 28.8356 30.6315 28.7614C30.4558 28.6872 30.267 28.649 30.0762 28.6489ZM19.9777 32.8245C19.5997 32.8304 19.2395 32.986 18.9761 33.2572C18.7127 33.5284 18.5677 33.8931 18.5729 34.2711V38.5525C18.5702 38.7416 18.6051 38.9294 18.6757 39.1049C18.7462 39.2804 18.8509 39.4401 18.9837 39.5748C19.1164 39.7095 19.2747 39.8164 19.4492 39.8894C19.6236 39.9624 19.8109 40 20 40C20.1891 40 20.3764 39.9624 20.5508 39.8894C20.7253 39.8164 20.8836 39.7095 21.0163 39.5748C21.1491 39.4401 21.2538 39.2804 21.3243 39.1049C21.3949 38.9294 21.4298 38.7416 21.4271 38.5525V34.2711C21.4297 34.0802 21.394 33.8907 21.3221 33.7138C21.2501 33.5369 21.1434 33.3762 21.0082 33.2413C20.8731 33.1065 20.7122 33 20.5352 32.9284C20.3582 32.8568 20.1686 32.8215 19.9777 32.8245Z" fill="white"/>
</svg>
