<svg width="25" height="25" viewBox="0 0 25 25" fill="none" xmlns="http://www.w3.org/2000/svg">
<path d="M2.5 15C3.88071 15 5 13.8807 5 12.5C5 11.1193 3.88071 10 2.5 10C1.11929 10 0 11.1193 0 12.5C0 13.8807 1.11929 15 2.5 15Z" fill="#AFAFAF"/>
<path d="M12.5 15C13.8807 15 15 13.8807 15 12.5C15 11.1193 13.8807 10 12.5 10C11.1193 10 10 11.1193 10 12.5C10 13.8807 11.1193 15 12.5 15Z" fill="#AFAFAF"/>
<path d="M22.5 15C23.8807 15 25 13.8807 25 12.5C25 11.1193 23.8807 10 22.5 10C21.1193 10 20 11.1193 20 12.5C20 13.8807 21.1193 15 22.5 15Z" fill="#AFAFAF"/>
</svg>
