<svg width="76" height="76" viewBox="0 0 76 76" fill="none" xmlns="http://www.w3.org/2000/svg">
<circle cx="38" cy="38" r="38" fill="#EBFFFF"/>
<circle cx="38" cy="38" r="37.5" stroke="#00A2A1" stroke-opacity="0.2"/>
<path d="M47 44C46.844 44 46.688 44 46.532 44.048L44.6 40.148C45.0275 39.7312 45.3209 39.1963 45.4427 38.6118C45.5644 38.0273 45.509 37.4197 45.2835 36.8669C45.058 36.314 44.6726 35.8411 44.1768 35.5085C43.6809 35.1759 43.0971 34.9989 42.5 35C42.344 35 42.2 35 42.032 35.048L40.076 31.148C40.652 30.608 41 29.852 41 29C41 28.2044 40.6839 27.4413 40.1213 26.8787C39.5587 26.3161 38.7956 26 38 26C37.2044 26 36.4413 26.3161 35.8787 26.8787C35.3161 27.4413 35 28.2044 35 29C35 29.852 35.348 30.608 35.912 31.148L33.968 35.048C33.8 35 33.656 35 33.5 35C32.9029 34.9989 32.3191 35.1759 31.8233 35.5085C31.3274 35.8411 30.942 36.314 30.7165 36.8669C30.491 37.4197 30.4356 38.0273 30.5573 38.6118C30.6791 39.1963 30.9725 39.7312 31.4 40.148L29.468 44.048C29.312 44 29.156 44 29 44C28.2044 44 27.4413 44.3161 26.8787 44.8787C26.3161 45.4413 26 46.2044 26 47C26 47.7957 26.3161 48.5587 26.8787 49.1213C27.4413 49.6839 28.2044 50 29 50C29.394 50 29.7841 49.9224 30.1481 49.7716C30.512 49.6209 30.8427 49.3999 31.1213 49.1213C31.3999 48.8427 31.6209 48.512 31.7716 48.1481C31.9224 47.7841 32 47.394 32 47C32 46.16 31.652 45.392 31.088 44.852L33.032 40.952C33.2 41 33.344 41 33.5 41C33.656 41 33.8 41 33.968 40.952L35.924 44.852C35.36 45.392 35 46.16 35 47C35 47.7957 35.3161 48.5587 35.8787 49.1213C36.4413 49.6839 37.2044 50 38 50C38.7956 50 39.5587 49.6839 40.1213 49.1213C40.6839 48.5587 41 47.7957 41 47C41 46.2044 40.6839 45.4413 40.1213 44.8787C39.5587 44.3161 38.7956 44 38 44C37.844 44 37.688 44 37.532 44.048L35.6 40.148C36.152 39.608 36.5 38.852 36.5 38C36.5 37.148 36.152 36.392 35.6 35.852L37.532 31.952C37.688 32 37.844 32 38 32C38.156 32 38.312 32 38.468 31.952L40.4 35.852C39.86 36.392 39.5 37.16 39.5 38C39.5 38.7956 39.8161 39.5587 40.3787 40.1213C40.9413 40.6839 41.7044 41 42.5 41C42.656 41 42.8 41 42.968 40.952L44.924 44.852C44.36 45.392 44 46.16 44 47C44 47.7957 44.3161 48.5587 44.8787 49.1213C45.4413 49.6839 46.2044 50 47 50C47.7957 50 48.5587 49.6839 49.1213 49.1213C49.6839 48.5587 50 47.7957 50 47C50 46.2044 49.6839 45.4413 49.1213 44.8787C48.5587 44.3161 47.7957 44 47 44Z" fill="#00A2A1"/>
</svg>
