<svg width="84" height="84" viewBox="0 0 84 84" fill="none" xmlns="http://www.w3.org/2000/svg">
<g filter="url(#filter0_d_596_2646)">
<circle cx="42" cy="42" r="37" fill="#7BE6E6" stroke="#7BE6E6" stroke-width="2"/>
<path d="M51 48C50.844 48 50.688 48 50.532 48.048L48.6 44.148C49.0275 43.7312 49.3209 43.1963 49.4427 42.6118C49.5644 42.0273 49.509 41.4197 49.2835 40.8669C49.058 40.314 48.6726 39.8411 48.1768 39.5085C47.6809 39.1759 47.0971 38.9989 46.5 39C46.344 39 46.2 39 46.032 39.048L44.076 35.148C44.652 34.608 45 33.852 45 33C45 32.2044 44.6839 31.4413 44.1213 30.8787C43.5587 30.3161 42.7956 30 42 30C41.2044 30 40.4413 30.3161 39.8787 30.8787C39.3161 31.4413 39 32.2044 39 33C39 33.852 39.348 34.608 39.912 35.148L37.968 39.048C37.8 39 37.656 39 37.5 39C36.9029 38.9989 36.3191 39.1759 35.8233 39.5085C35.3274 39.8411 34.942 40.314 34.7165 40.8669C34.491 41.4197 34.4356 42.0273 34.5573 42.6118C34.6791 43.1963 34.9725 43.7312 35.4 44.148L33.468 48.048C33.312 48 33.156 48 33 48C32.2044 48 31.4413 48.3161 30.8787 48.8787C30.3161 49.4413 30 50.2044 30 51C30 51.7957 30.3161 52.5587 30.8787 53.1213C31.4413 53.6839 32.2044 54 33 54C33.394 54 33.7841 53.9224 34.1481 53.7716C34.512 53.6209 34.8427 53.3999 35.1213 53.1213C35.3999 52.8427 35.6209 52.512 35.7716 52.1481C35.9224 51.7841 36 51.394 36 51C36 50.16 35.652 49.392 35.088 48.852L37.032 44.952C37.2 45 37.344 45 37.5 45C37.656 45 37.8 45 37.968 44.952L39.924 48.852C39.36 49.392 39 50.16 39 51C39 51.7957 39.3161 52.5587 39.8787 53.1213C40.4413 53.6839 41.2044 54 42 54C42.7956 54 43.5587 53.6839 44.1213 53.1213C44.6839 52.5587 45 51.7957 45 51C45 50.2044 44.6839 49.4413 44.1213 48.8787C43.5587 48.3161 42.7956 48 42 48C41.844 48 41.688 48 41.532 48.048L39.6 44.148C40.152 43.608 40.5 42.852 40.5 42C40.5 41.148 40.152 40.392 39.6 39.852L41.532 35.952C41.688 36 41.844 36 42 36C42.156 36 42.312 36 42.468 35.952L44.4 39.852C43.86 40.392 43.5 41.16 43.5 42C43.5 42.7956 43.8161 43.5587 44.3787 44.1213C44.9413 44.6839 45.7044 45 46.5 45C46.656 45 46.8 45 46.968 44.952L48.924 48.852C48.36 49.392 48 50.16 48 51C48 51.7957 48.3161 52.5587 48.8787 53.1213C49.4413 53.6839 50.2044 54 51 54C51.7957 54 52.5587 53.6839 53.1213 53.1213C53.6839 52.5587 54 51.7957 54 51C54 50.2044 53.6839 49.4413 53.1213 48.8787C52.5587 48.3161 51.7957 48 51 48Z" fill="#0E0E0E"/>
</g>
<defs>
<filter id="filter0_d_596_2646" x="0" y="0" width="84" height="84" filterUnits="userSpaceOnUse" color-interpolation-filters="sRGB">
<feFlood flood-opacity="0" result="BackgroundImageFix"/>
<feColorMatrix in="SourceAlpha" type="matrix" values="0 0 0 0 0 0 0 0 0 0 0 0 0 0 0 0 0 0 127 0" result="hardAlpha"/>
<feOffset/>
<feGaussianBlur stdDeviation="2"/>
<feComposite in2="hardAlpha" operator="out"/>
<feColorMatrix type="matrix" values="0 0 0 0 0 0 0 0 0 0 0 0 0 0 0 0 0 0 0.25 0"/>
<feBlend mode="normal" in2="BackgroundImageFix" result="effect1_dropShadow_596_2646"/>
<feBlend mode="normal" in="SourceGraphic" in2="effect1_dropShadow_596_2646" result="shape"/>
</filter>
</defs>
</svg>
