<svg width="16" height="16" viewBox="0 0 16 16" fill="none" xmlns="http://www.w3.org/2000/svg">
<path d="M3.682 0.9C2.94417 0.9 2.23656 1.1931 1.71483 1.71483C1.1931 2.23656 0.9 2.94417 0.9 3.682V12.318C0.9 13.8552 2.14477 15.1 3.682 15.1H12.318C13.8552 15.1 15.1 13.8552 15.1 12.318V3.682C15.1 2.14477 13.8552 0.9 12.318 0.9H3.682ZM2.1 3.682C2.1 2.80823 2.80823 2.1 3.682 2.1H12.318C13.1918 2.1 13.9 2.80823 13.9 3.682V12.318C13.9 13.1918 13.1918 13.9 12.318 13.9H3.682C3.26243 13.9 2.86004 13.7333 2.56336 13.4366C2.26667 13.14 2.1 12.7376 2.1 12.318V3.682Z" fill="#A5A5A5" stroke="#A5A5A5" stroke-width="0.2"/>
</svg>
