<svg width="20" height="20" viewBox="0 0 20 20" fill="none" xmlns="http://www.w3.org/2000/svg">
<path d="M9.16783 8.33337H10.8345V12.5H9.16783V8.33337ZM9.16699 13.3334H10.8337V15H9.16699V13.3334Z" fill="#664300"/>
<path d="M11.4731 3.49999C11.1831 2.95416 10.6181 2.61499 9.99979 2.61499C9.38146 2.61499 8.81646 2.95416 8.52646 3.50082L2.41146 15.0533C2.27577 15.307 2.20855 15.5917 2.21644 15.8793C2.22433 16.1669 2.30706 16.4475 2.45646 16.6933C2.60371 16.9403 2.81283 17.1446 3.06317 17.2861C3.31351 17.4275 3.59642 17.5013 3.88396 17.5H16.1156C16.7056 17.5 17.2398 17.1983 17.544 16.6933C17.6931 16.4474 17.7757 16.1668 17.7836 15.8793C17.7915 15.5917 17.7244 15.3071 17.589 15.0533L11.4731 3.49999ZM3.88396 15.8333L9.99979 4.28082L16.1198 15.8333H3.88396Z" fill="#664300"/>
</svg>
